<svg xmlns="http://www.w3.org/2000/svg" viewBox="0 0 64 64"><rect width="64" height="64" rx="14" fill="#101723"/><svg x="20" y="9" width="24" height="46" viewBox="0 0 704.0 1062.0">
<g transform="translate(0.000000,1062.000000) scale(0.100000,-0.100000)"
fill="#C49A2C" stroke="none">
<path d="M5715 10429 c-22 -5 -54 -16 -72 -24 -17 -8 -40 -15 -51 -15 -34 0
-52 -11 -68 -41 -8 -16 -27 -35 -42 -43 -15 -8 -69 -56 -120 -106 -51 -49
-108 -98 -125 -106 -18 -9 -59 -44 -93 -78 -33 -33 -91 -86 -129 -116 -77 -61
-114 -95 -256 -235 -53 -52 -101 -95 -107 -95 -6 0 -17 -6 -24 -13 -7 -7 -40
-35 -73 -61 -33 -27 -78 -66 -100 -87 -80 -76 -133 -119 -144 -119 -16 0 -76
-64 -116 -125 -38 -58 -67 -86 -112 -109 -17 -8 -38 -22 -46 -30 -8 -8 -28
-23 -45 -33 -17 -11 -68 -55 -114 -98 -113 -107 -340 -324 -413 -395 -33 -31
-80 -71 -105 -88 -46 -30 -100 -87 -155 -161 -16 -23 -55 -57 -85 -76 -56 -36
-180 -145 -180 -159 0 -18 -123 -154 -163 -179 -15 -10 -38 -34 -52 -55 -13
-20 -57 -64 -96 -97 -40 -33 -120 -104 -178 -157 -58 -54 -114 -98 -124 -98
-10 0 -29 -19 -45 -47 -34 -60 -83 -108 -155 -153 -31 -19 -57 -39 -57 -45 0
-5 -23 -32 -51 -60 -28 -27 -65 -74 -81 -103 -18 -31 -52 -70 -82 -93 -89 -67
-156 -133 -176 -170 -10 -20 -34 -47 -52 -61 -18 -14 -53 -46 -78 -70 -92 -87
-161 -148 -169 -148 -5 0 -27 -28 -49 -62 -46 -73 -100 -123 -154 -145 -21 -8
-52 -33 -69 -54 -17 -21 -37 -39 -45 -39 -7 0 -20 -16 -29 -36 -8 -20 -27 -48
-42 -63 -16 -15 -43 -47 -62 -70 -18 -24 -56 -56 -82 -73 -27 -16 -49 -34 -49
-38 0 -5 -22 -23 -49 -41 -31 -19 -54 -43 -60 -61 -6 -16 -20 -32 -31 -35 -12
-3 -33 -27 -48 -53 -15 -27 -68 -86 -117 -131 -83 -77 -107 -103 -198 -212
-46 -55 -68 -76 -88 -82 -23 -8 -34 -42 -19 -60 35 -42 247 -127 350 -140 30
-4 96 -20 145 -35 50 -15 110 -31 135 -35 25 -4 83 -18 130 -31 46 -13 100
-24 120 -24 61 0 213 -37 260 -64 25 -13 72 -30 105 -35 74 -13 117 -23 220
-50 44 -11 112 -25 150 -30 39 -5 93 -14 120 -20 28 -6 107 -17 177 -26 70 -9
147 -23 170 -31 24 -8 84 -21 135 -29 96 -14 235 -71 246 -99 8 -19 -7 -121
-26 -182 -46 -147 -63 -195 -89 -249 -15 -33 -28 -68 -28 -77 0 -10 -12 -48
-26 -85 -23 -60 -53 -218 -54 -281 0 -23 0 -23 37 5 73 55 142 132 154 172 6
21 24 54 40 72 15 18 31 44 34 57 3 14 17 41 30 61 14 19 32 56 40 81 9 26 31
62 50 80 19 19 35 38 35 42 0 18 117 258 160 327 64 104 94 165 114 234 9 31
39 90 66 130 27 39 58 97 70 127 12 30 32 73 44 95 12 22 45 94 71 160 66 162
117 236 155 228 3 -1 138 -6 300 -13 194 -7 318 -16 363 -27 52 -12 89 -13
170 -7 189 15 276 6 317 -31 14 -13 40 -26 59 -30 30 -6 33 -10 27 -36 -6 -30
-99 -151 -191 -249 -28 -30 -63 -73 -77 -95 -14 -22 -51 -65 -82 -96 -32 -31
-67 -71 -80 -88 -51 -69 -178 -204 -288 -308 -10 -9 -18 -26 -18 -38 0 -12
-13 -39 -30 -60 -16 -21 -30 -42 -30 -47 0 -8 -45 -60 -181 -208 -32 -36 -68
-83 -80 -105 -28 -54 -73 -100 -139 -144 -38 -24 -62 -50 -77 -80 -36 -70 -72
-121 -111 -155 -72 -61 -145 -142 -159 -175 -22 -51 -51 -87 -112 -135 -83
-65 -129 -110 -157 -152 -14 -21 -37 -46 -50 -57 -14 -10 -36 -40 -49 -65 -13
-26 -53 -78 -89 -116 -52 -54 -69 -81 -82 -125 -20 -70 -46 -121 -99 -196 -23
-33 -61 -96 -85 -140 -24 -44 -64 -102 -90 -130 -78 -83 -118 -143 -141 -213
-31 -98 -54 -133 -107 -168 -37 -24 -56 -47 -82 -100 -19 -37 -44 -80 -56 -94
-11 -14 -34 -45 -52 -70 -17 -25 -41 -56 -54 -70 -53 -56 -98 -118 -118 -160
-36 -80 -120 -204 -160 -240 -22 -20 -58 -70 -81 -115 -23 -44 -59 -99 -80
-122 -22 -24 -39 -47 -39 -52 0 -5 -25 -38 -56 -73 -31 -35 -66 -85 -79 -113
-13 -27 -35 -67 -49 -88 -14 -21 -26 -41 -26 -46 0 -4 -15 -25 -33 -47 -34
-40 -65 -91 -122 -199 -17 -33 -45 -80 -62 -105 -16 -25 -39 -61 -49 -80 -10
-19 -27 -46 -36 -59 -10 -13 -18 -34 -18 -48 0 -62 76 -28 172 78 48 53 85 84
117 98 32 13 62 39 99 83 56 68 151 156 192 178 32 17 42 27 73 77 14 23 43
54 63 69 20 16 47 45 59 65 13 20 37 41 53 48 16 7 35 23 42 36 7 14 30 36 52
51 21 15 47 41 58 58 10 18 37 42 59 54 22 13 55 42 73 65 37 47 103 113 164
163 22 18 55 55 74 82 18 27 47 58 64 70 49 34 136 121 197 197 69 85 87 104
179 180 74 62 112 98 209 197 31 32 59 58 63 58 4 0 39 37 78 82 39 45 83 89
98 98 15 10 56 51 92 93 36 41 84 87 108 103 24 15 52 41 64 56 11 16 37 40
59 53 21 14 57 45 81 71 66 71 81 84 165 154 44 36 89 81 101 101 20 35 51 72
134 162 21 23 40 49 43 58 8 24 232 224 308 276 34 22 106 88 160 145 365 384
441 465 501 541 21 27 66 71 100 98 158 129 308 267 389 359 67 75 133 145
201 210 20 19 67 68 104 108 37 41 78 81 92 89 14 8 41 36 60 61 56 75 88 107
139 142 27 18 56 47 65 64 9 17 32 41 50 54 19 13 45 39 58 57 12 19 33 40 46
47 13 7 33 26 45 43 26 37 123 130 159 152 57 35 385 401 394 440 10 40 -23
72 -106 105 -99 38 -188 58 -258 58 -31 0 -86 7 -122 16 -36 8 -105 19 -155
24 -129 13 -368 56 -450 81 -38 11 -100 30 -136 40 -36 11 -110 24 -164 30
-54 5 -106 11 -115 14 -28 9 -488 56 -645 66 -82 5 -158 12 -168 15 -10 3 -89
10 -175 15 -86 5 -195 13 -242 17 -180 15 -220 -4 -314 -148 -45 -68 -116
-208 -116 -228 0 -30 -55 -171 -81 -206 -16 -22 -29 -44 -29 -49 0 -5 -25 -45
-55 -89 -30 -44 -58 -91 -61 -104 -9 -36 -19 -39 -139 -41 -60 -1 -204 -5
-320 -8 -208 -7 -318 1 -564 36 -145 21 -182 84 -103 175 76 89 100 121 145
189 25 39 91 117 147 175 56 58 109 118 117 135 41 78 97 149 189 240 34 33
70 74 80 90 10 17 24 34 31 38 7 4 22 25 32 45 11 20 43 60 71 87 28 28 68 74
87 103 20 29 65 78 102 109 36 31 83 79 103 107 20 28 56 77 80 109 24 33 133
150 243 262 219 222 353 364 442 467 32 37 76 80 98 96 22 16 88 82 146 148
59 65 121 132 139 147 17 16 51 59 76 97 24 38 49 72 54 75 6 4 28 33 49 65
22 33 45 65 51 72 22 26 93 153 122 217 52 118 92 192 126 232 19 22 60 90 92
152 54 106 105 190 149 248 11 15 36 61 56 104 19 43 54 98 76 122 22 24 47
61 56 81 20 49 68 126 113 182 73 90 88 122 119 259 17 74 31 136 31 138 0 4
-7 3 -55 -8z"/>
</g>
</svg></svg>